<?xml version="1.0" encoding="utf-8"?>
<!-- Generator: Adobe Illustrator 24.1.2, SVG Export Plug-In . SVG Version: 6.00 Build 0)  -->
<svg version="1.1" id="Layer_1" xmlns="http://www.w3.org/2000/svg" xmlns:xlink="http://www.w3.org/1999/xlink" x="0px" y="0px"
	 viewBox="0 0 32 32" style="enable-background:new 0 0 32 32;" xml:space="preserve">
<style type="text/css">
	.st0{fill:#F04D37;}
</style>
<path class="st0" d="M32,30.6l-9.1-9.1c2-2.3,3.1-5.2,3.1-8.5c0-7.2-5.8-13-13-13C5.8,0,0,5.8,0,13c0,7.2,5.8,13,13,13
	c3.2,0,6.2-1.2,8.5-3.1l9.1,9.1L32,30.6z M13,24.1c-6.1,0-11-5-11-11C2,7,7,2,13,2s11,5,11,11C24.1,19.1,19.1,24.1,13,24.1z"/>
</svg>
