<?xml version="1.0" encoding="UTF-8"?>
<svg id="Vrstva_1" data-name="Vrstva 1" xmlns="http://www.w3.org/2000/svg" viewBox="0 0 368.5 56.69">
  <defs>
    <style>
      .cls-1 {
        fill: #ffffff;
      }
    </style>
  </defs>
  <path class="cls-1" d="m7.85,19.46h7.04v17.77h12.07v-17.77h-12.01v-5.64h12.01v5.64h7.1v17.77h-7.1v5.64h-12.07v10.06h-7.1l.06-33.47ZM39.58,3.76h7.6v6.82h-7.6V3.76Zm.22,39.11V13.82h7.15v29.06h-7.15Zm12.96-29.06h7.1v11.68h-7.1v-11.68Zm0,17.32h7.1v11.73h-7.1v-11.73Zm7.1-5.64h13.75v5.64h-13.75v-5.64Zm13.75-11.68h7.1v11.68h-7.1v-11.68Zm0,17.32h7.1v11.73h-7.1v-11.73Zm31.68-17.32v5.64h7.1v6.09h-7.1v5.64h-11.46v6.03h18.55v5.64h-18.55v-5.64h-7.1v-17.77h7.1v-5.64h11.46Zm-11.46,11.73h11.46v-6.09h-11.46v6.09Zm24.87,17.32V3.76h7.15v39.11h-7.15Zm30.73,0v-3.97c-1.62,2.85-5.08,4.81-8.83,4.81-4.81,0-9-3.35-9-8.83,0-5.87,5.92-7.82,9.67-8.55l5.87-1.12c.84-.17,2.46-.73,2.46-2.74,0-2.12-1.84-3.91-5.2-3.86-4.3.06-5.31,3.46-5.31,4.86h-7.1c0-4.36,4.02-10.5,12.4-10.5s12.13,5.14,12.13,10.78v19.11h-7.1Zm.22-11.79v-1.51l-6.93,1.34c-3.07.56-4.02,2.07-4.02,3.8,0,1.62,1.23,3.35,3.69,3.35,3.3,0,7.26-3.18,7.26-6.98Zm20.73-17.27v3.3c1.56-2.63,4.36-3.69,7.43-3.69.67,0,1.17.06,1.79.17v5.87c-.5-.11-1.01-.17-1.62-.17-5.14,0-7.6,3.91-7.6,7.1v16.48h-7.1V13.82h7.1Zm39.78,18.94c-.78,6.31-5.59,10.95-12.91,10.95-8.16,0-14.03-6.09-14.03-15.37s5.25-15.37,13.8-15.37,13.02,5.7,13.35,11.01h-7.1c-.33-1.45-1.62-5.42-6.09-5.42-4.81,0-6.87,4.41-6.87,9.78,0,5.87,2.35,9.72,6.87,9.72,4.08,0,5.64-3.41,5.92-5.31h7.04Zm31.01-8.61v18.72h-7.1v-18.1c0-3.69-2.29-6.09-5.36-6.09s-5.48,2.29-5.48,6.31v17.88h-7.1V3.76h7.1v12.96c1.79-2.51,4.25-3.74,7.43-3.74,5.64,0,10.51,3.97,10.51,11.18Zm6.48-20.4h7.6v6.82h-7.6V3.76Zm.22,39.11V13.82h7.15v29.06h-7.15Zm39.84-29.06l-9.67,29.06h-8.83l-9.72-29.06h7.32l6.76,22.07,6.82-22.07h7.32Zm3.35,21.23h7.82v7.82h-7.82v-7.82Zm41.46-2.29c-.78,6.31-5.59,10.95-12.91,10.95-8.16,0-14.03-6.09-14.03-15.37s5.25-15.37,13.8-15.37,13.02,5.7,13.35,11.01h-7.1c-.33-1.45-1.62-5.42-6.09-5.42-4.8,0-6.87,4.41-6.87,9.78,0,5.87,2.35,9.72,6.87,9.72,4.08,0,5.64-3.41,5.92-5.31h7.04Zm13.02,4.47h15.14v5.64h-23.47v-5.87l14.64-17.54h-14.19v-5.64h22.46v5.87l-14.58,17.55Z"/>
</svg>