<?xml version="1.0" encoding="UTF-8" standalone="no"?>
<svg xmlns:dc="http://purl.org/dc/elements/1.1/" xmlns:cc="http://creativecommons.org/ns#" xmlns:rdf="http://www.w3.org/1999/02/22-rdf-syntax-ns#" xmlns:svg="http://www.w3.org/2000/svg" xmlns="http://www.w3.org/2000/svg" xmlns:sodipodi="http://sodipodi.sourceforge.net/DTD/sodipodi-0.dtd" xmlns:inkscape="http://www.inkscape.org/namespaces/inkscape" width="145.3038mm" height="127.00829mm" viewBox="0 0 145.3038 127.00829" version="1.1" id="svg212" inkscape:version="1.0.1 (3bc2e813f5, 2020-09-07)" sodipodi:docname="logo_new_color.svg">
  <defs id="defs206">
    <clipPath clipPathUnits="userSpaceOnUse" id="clipPath26">
      <path d="M 0,1080 H 1920 V 0 H 0 Z" id="path24"/>
    </clipPath>
  </defs>
  <sodipodi:namedview id="base" pagecolor="#ffffff" bordercolor="#666666" borderopacity="1.0" inkscape:pageopacity="0.0" inkscape:pageshadow="2" inkscape:zoom="0.98994949" inkscape:cx="144.80129" inkscape:cy="327.17385" inkscape:document-units="mm" inkscape:current-layer="layer1" inkscape:document-rotation="0" showgrid="false" inkscape:window-width="1920" inkscape:window-height="1017" inkscape:window-x="1912" inkscape:window-y="-8" inkscape:window-maximized="1"/>
  <metadata id="metadata209">
    <rdf:RDF>
      <cc:Work rdf:about="">
        <dc:format>image/svg+xml</dc:format>
        <dc:type rdf:resource="http://purl.org/dc/dcmitype/StillImage"/>
        <dc:title/>
      </cc:Work>
    </rdf:RDF>
  </metadata>
  <g inkscape:label="Layer 1" inkscape:groupmode="layer" id="layer1" transform="translate(-22.598099,-18.138708)">
    <g id="g28" transform="matrix(0.35277777,0,0,-0.35277777,22.598099,72.681538)" style="fill:#ffffff;fill-opacity:1">
      <path d="m 0,0 h 12.278 l 7.533,-34.65 c 0.677,-3.389 1.054,-5.725 1.28,-8.135 h 0.302 c 0.225,2.41 0.602,4.746 1.28,8.135 L 30.205,0 H 42.483 L 28.322,-53.481 H 14.161 Z" style="fill:#ffffff;fill-opacity:1;fill-rule:nonzero;stroke:none" id="path30"/>
    </g>
    <path d="m 38.85565,72.681397 h 4.092223 V 91.548305 H 38.85565 Z" style="fill:#ffffff;fill-opacity:1;fill-rule:nonzero;stroke:none;stroke-width:0.352778" id="path32"/>
    <g id="g34" transform="matrix(0.35277777,0,0,-0.35277777,51.679722,88.545778)" style="fill:#ffffff;fill-opacity:1">
      <path d="m 0,0 c 6.855,0 10.395,6.553 10.395,18.304 0,13.333 -3.314,18.154 -10.32,18.154 h -5.65 L -5.575,0 Z M -17.25,44.969 H 0.151 c 13.86,0 22.371,-7.909 22.371,-26.665 C 22.522,-0.678 13.935,-8.512 0,-8.512 h -17.25 z" style="fill:#ffffff;fill-opacity:1;fill-rule:nonzero;stroke:none" id="path36"/>
    </g>
    <g id="g38" transform="matrix(0.35277777,0,0,-0.35277777,72.478441,88.439486)" style="fill:#ffffff;fill-opacity:1">
      <path d="M 0,0 V -8.813 H -31.11 V 44.668 H -0.527 V 35.855 H -19.51 V 22.974 H -1.658 V 14.236 H -19.51 V 0 Z" style="fill:#ffffff;fill-opacity:1;fill-rule:nonzero;stroke:none" id="path40"/>
    </g>
    <g id="g42" transform="matrix(0.35277777,0,0,-0.35277777,84.228798,82.115062)" style="fill:#ffffff;fill-opacity:1">
      <path d="m 0,0 c 0,14.538 -3.314,18.831 -9.115,18.831 -5.875,0 -9.264,-4.293 -9.264,-18.831 0,-14.463 3.389,-18.831 9.264,-18.831 C -3.314,-18.831 0,-14.463 0,0 m -30.432,0 c 0,19.961 7.985,28.02 21.317,28.02 13.258,0 21.242,-8.059 21.242,-28.02 0,-19.962 -7.984,-28.021 -21.242,-28.021 -13.332,0 -21.317,8.059 -21.317,28.021" style="fill:#ffffff;fill-opacity:1;fill-rule:nonzero;stroke:none" id="path44"/>
    </g>
    <g id="g46" transform="matrix(0.35277777,0,0,-0.35277777,95.575049,81.929043)" style="fill:#ffffff;fill-opacity:1">
      <path d="m 0,0 c 0,18.982 7.834,27.493 21.318,27.493 11.901,0 18.53,-6.177 19.283,-16.797 L 29.076,8.512 c -0.527,6.628 -2.787,10.169 -7.909,10.169 -5.951,0 -9.039,-4.671 -9.039,-18.681 0,-14.764 2.937,-19.51 9.265,-19.51 5.499,0 8.135,4.52 8.135,11.826 v 1.356 h -9.19 V 2.41 h 20.338 v -29.678 h -8.512 l -0.452,8.211 C 29.829,-24.933 25.234,-28.549 18.38,-28.549 6.553,-28.549 0,-19.811 0,0" style="fill:#ffffff;fill-opacity:1;fill-rule:nonzero;stroke:none" id="path48"/>
    </g>
    <g id="g50" transform="matrix(0.35277777,0,0,-0.35277777,120.85948,84.214266)" style="fill:#ffffff;fill-opacity:1">
      <path d="m 0,0 -3.842,15.818 c -0.527,2.411 -1.054,4.745 -1.506,7.608 H -5.5 C -5.875,20.563 -6.403,18.229 -7.005,15.818 L -10.848,0 Z m 1.958,-8.362 h -14.764 l -3.012,-12.428 h -11.751 l 15.065,53.481 H 1.732 L 16.722,-20.79 H 4.971 Z" style="fill:#ffffff;fill-opacity:1;fill-rule:nonzero;stroke:none" id="path52"/>
    </g>
    <g id="g54" transform="matrix(0.35277777,0,0,-0.35277777,128.1617,72.681538)" style="fill:#ffffff;fill-opacity:1">
      <path d="m 0,0 h 15.893 l 7.081,-30.206 c 0.603,-2.711 0.979,-5.197 1.13,-7.231 h 0.226 c 0.15,2.034 0.527,4.52 1.13,7.231 L 32.39,0 H 48.358 V -53.481 H 37.964 v 31.711 c 0,3.164 0.075,7.081 0.225,10.245 h -0.225 c -0.227,-2.034 -0.603,-4.218 -1.055,-6.554 l -8.21,-35.402 h -9.266 l -8.436,35.402 c -0.527,2.411 -0.979,4.972 -1.054,6.478 H 9.642 c 0.225,-3.013 0.225,-6.93 0.225,-10.169 V -53.481 H 0 Z" style="fill:#ffffff;fill-opacity:1;fill-rule:nonzero;stroke:none" id="path56"/>
    </g>
    <g id="g58" transform="matrix(0.35277777,0,0,-0.35277777,158.90656,88.439486)" style="fill:#ffffff;fill-opacity:1">
      <path d="M 0,0 V -8.813 H -31.109 V 44.668 H -0.527 V 35.855 H -19.509 V 22.974 H -1.657 V 14.236 H -19.509 V 0 Z" style="fill:#ffffff;fill-opacity:1;fill-rule:nonzero;stroke:none" id="path60"/>
    </g>
    <g id="g62" transform="matrix(0.35277777,0,0,-0.35277777,37.798023,118.12217)" style="fill:#ffffff;fill-opacity:1">
      <path d="M 0,0 H -11.676 V 22.749 H -26.892 V 0 h -11.599 v 53.482 h 11.599 v -21.77 h 15.216 v 21.77 H 0 Z" style="fill:#ffffff;fill-opacity:1;fill-rule:nonzero;stroke:none" id="path64"/>
    </g>
    <path d="m 40.497831,99.255088 h 4.092222 v 18.867262 h -4.092222 z" style="fill:#ffffff;fill-opacity:1;fill-rule:nonzero;stroke:none;stroke-width:0.352778" id="path66"/>
    <g id="g68" transform="matrix(0.35277777,0,0,-0.35277777,45.828197,113.23257)" style="fill:#ffffff;fill-opacity:1">
      <path d="m 0,0 10.245,4.52 c 1.732,-7.007 4.82,-10.321 10.244,-10.321 4.142,0 6.553,2.486 6.553,6.177 0,3.616 -1.431,5.726 -5.875,7.081 l -7.683,2.411 c -7.609,2.41 -11.149,7.908 -11.149,15.441 0,9.793 7.458,15.592 18.003,15.592 9.641,0 16.496,-3.916 18.681,-13.558 l -9.491,-4.746 c -1.507,6.629 -5.047,9.567 -9.642,9.567 -3.917,0 -6.402,-2.26 -6.402,-5.649 0,-3.239 1.958,-5.575 6.177,-7.005 l 7.683,-2.562 C 35.328,14.236 38.567,9.49 38.567,1.506 c 0,-9.717 -6.779,-16.647 -18.53,-16.647 C 9.19,-15.141 2.486,-9.718 0,0" style="fill:#ffffff;fill-opacity:1;fill-rule:nonzero;stroke:none" id="path70"/>
    </g>
    <g id="g72" transform="matrix(0.35277777,0,0,-0.35277777,73.413796,102.62994)" style="fill:#ffffff;fill-opacity:1">
      <path d="M 0,0 H -12.88 V -43.915 H -24.556 V 0 H -37.437 V 9.567 H 0 Z" style="fill:#ffffff;fill-opacity:1;fill-rule:nonzero;stroke:none" id="path74"/>
    </g>
    <g id="g76" transform="matrix(0.35277777,0,0,-0.35277777,84.529365,108.68854)" style="fill:#ffffff;fill-opacity:1">
      <path d="m 0,0 c 0,14.537 -3.314,18.831 -9.114,18.831 -5.876,0 -9.265,-4.294 -9.265,-18.831 0,-14.463 3.389,-18.831 9.265,-18.831 5.8,0 9.114,4.368 9.114,18.831 m -30.432,0 c 0,19.96 7.985,28.02 21.318,28.02 13.257,0 21.241,-8.06 21.241,-28.02 0,-19.962 -7.984,-28.022 -21.241,-28.022 -13.333,0 -21.318,8.06 -21.318,28.022" style="fill:#ffffff;fill-opacity:1;fill-rule:nonzero;stroke:none" id="path78"/>
    </g>
    <g id="g80" transform="matrix(0.35277777,0,0,-0.35277777,96.880221,107.97138)" style="fill:#ffffff;fill-opacity:1">
      <path d="m 0,0 c 5.123,0 7.307,3.24 7.307,8.663 0,5.272 -2.109,7.985 -7.307,7.985 H -5.649 V 0 Z M 0.227,-7.607 H -5.649 V -28.774 H -17.325 V 24.708 H 1.733 c 12.429,0 17.852,-6.177 17.852,-16.045 0,-7.005 -3.088,-11.977 -8.587,-14.161 L 20.64,-28.774 H 8.136 Z" style="fill:#ffffff;fill-opacity:1;fill-rule:nonzero;stroke:none" id="path82"/>
    </g>
    <g id="g84" transform="matrix(0.35277777,0,0,-0.35277777,108.98681,111.31942)" style="fill:#ffffff;fill-opacity:1">
      <path d="M 0,0 -14.613,34.198 H -2.335 L 4.671,15.366 C 5.198,13.559 5.574,11.901 5.8,9.943 h 0.226 c 0.226,1.958 0.528,3.616 1.13,5.423 l 6.855,18.832 H 26.289 L 11.751,0 V -19.283 H 0 Z" style="fill:#ffffff;fill-opacity:1;fill-rule:nonzero;stroke:none" id="path86"/>
    </g>
    <g id="g88" transform="matrix(0.35277777,0,0,-0.35277777,28.311264,128.99058)" style="fill:#ffffff;fill-opacity:1">
      <path d="m 0,0 v -13.031 h 17.777 v -8.813 H 0 V -44.517 H -11.6 V 8.964 H 18.982 V 0 Z" style="fill:#ffffff;fill-opacity:1;fill-rule:nonzero;stroke:none" id="path90"/>
    </g>
    <g id="g92" transform="matrix(0.35277777,0,0,-0.35277777,46.548746,135.2617)" style="fill:#ffffff;fill-opacity:1">
      <path d="m 0,0 c 0,14.538 -3.314,18.831 -9.115,18.831 -5.875,0 -9.265,-4.293 -9.265,-18.831 0,-14.462 3.39,-18.831 9.265,-18.831 C -3.314,-18.831 0,-14.462 0,0 m -30.432,0 c 0,19.961 7.985,28.021 21.317,28.021 13.257,0 21.242,-8.06 21.242,-28.021 0,-19.962 -7.985,-28.021 -21.242,-28.021 -13.332,0 -21.317,8.059 -21.317,28.021" style="fill:#ffffff;fill-opacity:1;fill-rule:nonzero;stroke:none" id="path94"/>
    </g>
    <g id="g96" transform="matrix(0.35277777,0,0,-0.35277777,56.688708,125.82818)" style="fill:#ffffff;fill-opacity:1">
      <path d="m 0,0 v -37.061 c 0,-5.047 2.711,-8.06 7.457,-8.06 4.67,0 7.382,3.013 7.382,8.06 V 0 h 11.6 v -37.588 c 0,-10.545 -6.93,-17.174 -18.982,-17.174 -12.127,0 -19.058,6.629 -19.058,17.174 V 0 Z" style="fill:#ffffff;fill-opacity:1;fill-rule:nonzero;stroke:none" id="path98"/>
    </g>
    <g id="g100" transform="matrix(0.35277777,0,0,-0.35277777,68.566876,125.82818)" style="fill:#ffffff;fill-opacity:1">
      <path d="m 0,0 h 12.73 l 13.483,-27.87 c 1.205,-2.637 2.034,-5.199 2.637,-8.89 H 29 c -0.075,3.39 -0.15,7.082 -0.15,10.697 V 0 h 10.695 v -53.481 h -11.75 l -14.312,29.226 c -1.356,2.862 -2.185,5.8 -2.712,8.964 h -0.15 c 0.075,-2.788 0.15,-6.704 0.15,-10.32 v -27.87 H 0 Z" style="fill:#ffffff;fill-opacity:1;fill-rule:nonzero;stroke:none" id="path102"/>
    </g>
    <g id="g104" transform="matrix(0.35277777,0,0,-0.35277777,91.289187,141.69238)" style="fill:#ffffff;fill-opacity:1">
      <path d="m 0,0 c 6.855,0 10.395,6.553 10.395,18.304 0,13.333 -3.314,18.154 -10.319,18.154 h -5.65 L -5.574,0 Z m -17.249,44.969 h 17.4 c 13.86,0 22.372,-7.909 22.372,-26.665 C 22.523,-0.678 13.936,-8.512 0,-8.512 h -17.249 z" style="fill:#ffffff;fill-opacity:1;fill-rule:nonzero;stroke:none" id="path106"/>
    </g>
    <g id="g108" transform="matrix(0.35277777,0,0,-0.35277777,108.92822,137.36087)" style="fill:#ffffff;fill-opacity:1">
      <path d="m 0,0 -3.841,15.818 c -0.528,2.411 -1.055,4.745 -1.507,7.608 H -5.499 C -5.875,20.563 -6.402,18.229 -7.005,15.818 L -10.847,0 Z m 1.958,-8.362 h -14.763 l -3.013,-12.428 h -11.751 l 15.065,53.481 H 1.733 L 16.723,-20.79 H 4.972 Z" style="fill:#ffffff;fill-opacity:1;fill-rule:nonzero;stroke:none" id="path110"/>
    </g>
    <g id="g112" transform="matrix(0.35277777,0,0,-0.35277777,126.40003,129.20306)" style="fill:#ffffff;fill-opacity:1">
      <path d="M 0,0 H -12.88 V -43.915 H -24.556 V 0 H -37.437 V 9.567 H 0 Z" style="fill:#ffffff;fill-opacity:1;fill-rule:nonzero;stroke:none" id="path114"/>
    </g>
    <path d="m 127.66745,125.82807 h 4.09223 v 18.86691 h -4.09223 z" style="fill:#ffffff;fill-opacity:1;fill-rule:nonzero;stroke:none;stroke-width:0.352778" id="path116"/>
    <g id="g118" transform="matrix(0.35277777,0,0,-0.35277777,144.45132,135.2617)" style="fill:#ffffff;fill-opacity:1">
      <path d="m 0,0 c 0,14.538 -3.314,18.831 -9.115,18.831 -5.875,0 -9.265,-4.293 -9.265,-18.831 0,-14.462 3.39,-18.831 9.265,-18.831 C -3.314,-18.831 0,-14.462 0,0 m -30.432,0 c 0,19.961 7.985,28.021 21.317,28.021 13.257,0 21.242,-8.06 21.242,-28.021 0,-19.962 -7.985,-28.021 -21.242,-28.021 -13.332,0 -21.317,8.059 -21.317,28.021" style="fill:#ffffff;fill-opacity:1;fill-rule:nonzero;stroke:none" id="path120"/>
    </g>
    <g id="g122" transform="matrix(0.35277777,0,0,-0.35277777,150.69019,125.82818)" style="fill:#ffffff;fill-opacity:1">
      <path d="m 0,0 h 12.73 l 13.483,-27.87 c 1.205,-2.637 2.035,-5.199 2.637,-8.89 H 29 c -0.075,3.39 -0.15,7.082 -0.15,10.697 V 0 H 39.546 V -53.481 H 27.795 l -14.312,29.226 c -1.356,2.862 -2.184,5.8 -2.711,8.964 h -0.151 c 0.075,-2.788 0.151,-6.704 0.151,-10.32 v -27.87 H 0 Z" style="fill:#ffffff;fill-opacity:1;fill-rule:nonzero;stroke:none" id="path124"/>
    </g>
    <path d="M 67.134316,62.713308 H 24.219254 V 19.798245 h 42.915062 z" style="fill:#6b7ce7;fill-opacity:1;fill-rule:nonzero;stroke:none;stroke-width:0.352778" id="path126"/>
    <g id="g128" transform="matrix(0.35277777,0,0,-0.35277777,107.61909,19.798386)" style="fill:#eb6fbd;fill-opacity:1">
      <path d="m 0,0 h -70.234 l -35.117,-60.824 35.117,-60.825 H 0 l 35.117,60.825 z" style="fill:#eb6fbd;fill-opacity:1;fill-rule:nonzero;stroke:none" id="path130"/>
    </g>
    <g id="g132" transform="matrix(0.35277777,0,0,-0.35277777,167.9019,41.255882)" style="fill:#ffaa4d;fill-opacity:1">
      <path d="m 0,0 c 0,-36.191 -29.338,-65.529 -65.529,-65.529 -36.191,0 -65.529,29.338 -65.529,65.529 0,36.191 29.338,65.529 65.529,65.529 C -29.338,65.529 0,36.191 0,0" style="fill:#ffaa4d;fill-opacity:1;fill-rule:nonzero;stroke:none" id="path134"/>
    </g>
  </g>
</svg>