<svg xmlns="http://www.w3.org/2000/svg" viewBox="0 0 139 21.75" id="svg--visiongame-logo">
      <path fill="#00D775" d="M31.166 1.566h-.001A2.471 2.471 0 0028.304.41l-.007.003a2.48 2.48 0 01-1.693-.094l-.006-.003a3.965 3.965 0 00-1.111-.299h-.013a2.283 2.283 0 00-1.478.325l-2.69 1.467-.03.014a3.881 3.881 0 01-1.702.389h-.042a8.548 8.548 0 00-5.576 2.058l-.007.006-7.754 6.104-.067.041-.087.059a.342.342 0 00.234.592h.756c.119 0 .215.096.215.215a.206.206 0 01-.053.139L.1 15.648a.222.222 0 00-.1.184c0 .119.095.213.215.213a.197.197 0 00.12-.038l3.876-1.344-2.5 1.603-.002.001a.214.214 0 00.125.387c.026 0 .05-.002.074-.012l6.221-2.928.067-.034a.246.246 0 01.067-.009c.119 0 .214.096.214.213 0 .052-.018.1-.048.137l-.038.051-5.308 7.134-.021.027a.54.54 0 00-.071.124.299.299 0 00.283.392.296.296 0 00.219-.098l3.57-3.941.068-.003a10.072 10.072 0 003.681-2.212l.045-.046.002-.002a.358.358 0 01.237-.089c.046 0 .091.008.131.023l-.008-.001a9.352 9.352 0 002.121.496l1.196 1.266 1.784 1.953h-1.327c-.239 0-.519.279-.519.626v.07c.002.023.002.044.004.053h7.733c.002-.009.002-.03.003-.053h.001v-.07a.625.625 0 00-.625-.626H20.2a.377.377 0 00-.031-.042l-2.602-2.773-.007-.007a2.778 2.778 0 001.398-1.514 9.395 9.395 0 004.151-4.727l-.02.045a3.909 3.909 0 012.773-2.355l.005-.001c.073-.016.146-.034.218-.054l.04-.012a2.499 2.499 0 001.782-2.141v-.013c.093-.941.708-1.566 1.553-1.906l.374-.157.074-.03.819-.32a.228.228 0 00-.083-.437h-.008l-2.05-.161a2.469 2.469 0 012.322-.591c.02.003.037.007.057.007a.23.23 0 00.201-.34zM19.072 19.095h-1.593c-.01-.015-.02-.027-.032-.042l-2.042-2.173c.339-.206.61-.511.774-.875l.466.502 2.427 2.588z"></path>
      <path d="M35.266 8.002h1.956l3.378 9.125 3.345-9.125h1.972l-4.614 11.834H39.88L35.266 8.002zm12.383 0h1.801v11.834h-1.801V8.002zm3.876 8.628l1.766-.481c.155 1.406 1.235 2.161 2.607 2.161 1.303 0 2.11-.635 2.11-1.767 0-2.607-5.694-1.887-5.694-5.574 0-1.956 1.595-3.138 3.482-3.138 1.458 0 2.71.6 3.481 1.988l-1.458.909c-.446-.857-1.201-1.304-2.041-1.304-.892 0-1.646.584-1.646 1.424 0 2.436 5.694 1.698 5.694 5.591 0 2.211-1.75 3.533-3.927 3.533-2.076.002-4.031-1.13-4.374-3.342zm10.444-8.628h1.801v11.834h-1.801V8.002zm4.219 5.918c0-3.258 1.749-6.088 5.557-6.088 3.79 0 5.54 2.83 5.54 6.088s-1.75 6.089-5.54 6.089c-3.807 0-5.557-2.831-5.557-6.089zm9.228 0c0-2.367-1.012-4.459-3.67-4.459s-3.688 2.092-3.688 4.459 1.029 4.46 3.688 4.46 3.67-2.093 3.67-4.46zm4.321-5.918h2.007l5.042 9.09v-9.09h1.749v11.834h-2.024l-5.008-9.09v9.09h-1.767l.001-11.834zm22.005 5.592v6.243h-1.441l-.12-1.783c-.617 1.029-1.818 1.955-3.791 1.955-3.362 0-5.352-2.745-5.352-6.106 0-3.258 1.836-6.089 5.575-6.089 2.281 0 4.133 1.064 4.991 3.397l-1.646.669c-.549-1.579-1.767-2.454-3.413-2.454-2.538 0-3.705 2.076-3.705 4.46 0 2.435 1.218 4.476 3.687 4.476 1.921 0 3.327-1.27 3.499-3.31h-2.71v-1.458h4.426zm9.415 3.67h-4.888l-.926 2.573h-1.852l4.579-11.852h1.287l4.579 11.852h-1.853l-.926-2.573zm-.549-1.509l-1.887-5.231-1.904 5.231h3.791zm5.23-7.753h2.59l3.259 8.851 3.241-8.851h2.59v11.834h-1.749v-9.57l-3.173 8.542h-1.835l-3.156-8.542v9.57h-1.767V8.002zm14.733 0h7.787v1.647h-5.986v3.275h5.385v1.646h-5.385v3.603h5.986v1.663h-7.787V8.002z" fill="#FFF"></path>
      
      
    </svg>
